<svg xmlns="http://www.w3.org/2000/svg" viewBox="0 0 128 128"><path d="M29.094 11.219c-3.184 0-5.719 2.566-5.719 5.75v94.062c0 3.184 2.535 5.75 5.719 5.75h69.812c3.184 0 5.719-2.566 5.719-5.75V40.344H83.594c-4.306 0-8.063-3.141-8.063-7.313V11.22H29.094zm50.437 0V33.03c0 1.714 1.632 3.313 4.063 3.313h21.031L79.531 11.219zm-45.375 40.5h1.5c.554 0 1 .446 1 1v2.687h2.719c.554 0 1 .446 1 1v1.5c0 .554-.446 1-1 1h-2.719v2.719c0 .554-.446 1-1 1h-1.5c-.554 0-1-.446-1-1v-2.719h-2.718c-.554 0-1-.446-1-1v-1.5c0-.554.446-1 1-1h2.718V52.72c0-.554.446-1 1-1zm14 2.343h43.907c.979 0 1.78.803 1.78 1.782V58.5c0 .98-.801 1.75-1.78 1.75H48.156c-.979 0-1.75-.77-1.75-1.75v-2.656c0-.98.771-1.782 1.75-1.782zm-14 11.563h1.5c.554 0 1 .446 1 1v2.688h2.719c.554 0 1 .445 1 1v1.5c0 .553-.446 1-1 1h-2.719v2.718c0 .554-.446 1-1 1h-1.5c-.554 0-1-.446-1-1v-2.719h-2.718c-.554 0-1-.445-1-1v-1.5c0-.553.446-1 1-1h2.718v-2.687c0-.554.446-1 1-1zm14 2.688h43.907c.979 0 1.78.802 1.78 1.78v2.657c0 .98-.801 1.75-1.78 1.75H48.156c-.979 0-1.75-.77-1.75-1.75v-2.656c0-.98.771-1.781 1.75-1.781zm0 14.25h43.907c.979 0 1.78.77 1.78 1.75v2.656c0 .979-.801 1.781-1.78 1.781H48.156c-.979 0-1.75-.802-1.75-1.781v-2.656c0-.98.771-1.75 1.75-1.75zM30.438 83.75h8.937c.554 0 1 .446 1 1v1.5c0 .554-.446 1-1 1h-8.938c-.553 0-1-.446-1-1v-1.5c0-.554.447-1 1-1zm3.718 10.719h1.5c.554 0 1 .446 1 1v2.687h2.719c.554 0 1 .446 1 1v1.5c0 .554-.446 1-1 1h-2.719v2.719c0 .554-.446 1-1 1h-1.5c-.554 0-1-.446-1-1v-2.719h-2.718c-.554 0-1-.446-1-1v-1.5c0-.554.446-1 1-1h2.718V95.47c0-.554.446-1 1-1zm14 2.375h43.907c.979 0 1.78.77 1.78 1.75v2.656c0 .98-.801 1.781-1.78 1.781H48.156c-.979 0-1.75-.802-1.75-1.781v-2.656c0-.98.771-1.75 1.75-1.75z"/></svg>