<svg xmlns="http://www.w3.org/2000/svg" width="266" height="78" fill="none"><g filter="url(#a)"><path fill="#222" d="M23.261 42.592c0-2.24.256-4.432.768-6.576a29.913 29.913 0 0 1 2.256-6.144 27.512 27.512 0 0 1 3.408-5.328c1.344-1.632 2.8-3.04 4.368-4.224a19.62 19.62 0 0 1 5.088-2.736 15.6 15.6 0 0 1 5.52-1.008c2.208 0 3.92.464 5.136 1.392 1.248.928 1.872 2.224 1.872 3.888 0 .64-.096 1.296-.288 1.968a8.675 8.675 0 0 1-.768 2.016c-.32.64-.704 1.264-1.152 1.872a8.801 8.801 0 0 1-1.488 1.584 3.805 3.805 0 0 1-2.16-1.104 4.345 4.345 0 0 1-1.152-2.208c1.12-.928 2-1.888 2.64-2.88.672-1.024 1.008-1.952 1.008-2.784 0-1.408-.88-2.112-2.64-2.112-.736 0-1.504.16-2.304.48-.768.288-1.552.704-2.352 1.248-.8.544-1.584 1.2-2.352 1.968a20.429 20.429 0 0 0-2.064 2.544c-4.448 6.4-6.672 12.944-6.672 19.632 0 2.368.368 4.272 1.104 5.712.736 1.44 1.712 2.288 2.928 2.544 1.376-.32 3.12-1.2 5.232-2.64 2.112-1.44 4.416-3.312 6.912-5.616.32.32.512.656.576 1.008a62.134 62.134 0 0 1-2.88 3.504 45.644 45.644 0 0 1-2.976 3.072c-.96.928-1.92 1.744-2.88 2.448-.928.704-1.792 1.248-2.592 1.632-3.968-.064-6.976-1.2-9.024-3.408-2.048-2.208-3.072-5.456-3.072-9.744ZM55.5 53.68c-1.824-.192-3.28-.992-4.368-2.4-1.088-1.408-1.632-3.2-1.632-5.376 0-1.28.192-2.608.576-3.984a18.643 18.643 0 0 1 1.632-3.984 22.033 22.033 0 0 1 2.496-3.696c.96-1.152 2-2.144 3.12-2.976 1.76-1.312 3.408-1.968 4.944-1.968 1.024.544 2.032 1.68 3.024 3.408h.432c.128-.032.272-.048.432-.048 1.696 0 2.544 1.504 2.544 4.512 0 2.016-.336 3.936-1.008 5.76a16.736 16.736 0 0 1-2.736 4.896 16.155 16.155 0 0 1-4.176 3.744c-1.6.992-3.36 1.696-5.28 2.112Zm2.448-15.12a22.036 22.036 0 0 0-1.536 2.4 21.99 21.99 0 0 0-1.248 2.64 16.706 16.706 0 0 0-.816 2.544c-.192.8-.288 1.52-.288 2.16 0 .768.128 1.504.384 2.208.256.704.544 1.104.864 1.2 1.44-.32 2.752-.912 3.936-1.776 1.216-.896 2.256-2 3.12-3.312.896-1.312 1.584-2.8 2.064-4.464.512-1.664.768-3.44.768-5.328 0-.832-.048-1.488-.144-1.968a3.628 3.628 0 0 0-.48-1.248 10.578 10.578 0 0 0-3.792 2.016 20.244 20.244 0 0 0-2.832 2.928Zm40.82-1.296c-.513.032-1.137.368-1.873 1.008-.736.608-1.536 1.408-2.4 2.4a84.819 84.819 0 0 0-2.64 3.216 254.207 254.207 0 0 0-2.64 3.552c-.832 1.152-1.616 2.24-2.352 3.264a41.812 41.812 0 0 1-1.872 2.448 5.153 5.153 0 0 1-1.824-1.248c-.512-.576-.88-1.28-1.104-2.112.16-.992.384-2.016.672-3.072a31.588 31.588 0 0 1 1.104-3.36 40.389 40.389 0 0 1 1.728-3.6 43.187 43.187 0 0 1 2.544-4.032c-.48.032-1.136.384-1.968 1.056-.832.64-1.728 1.488-2.688 2.544a51.11 51.11 0 0 0-2.976 3.504 91.514 91.514 0 0 0-2.88 3.792 111.347 111.347 0 0 0-2.976 4.368c-.768 1.248-1.328 1.984-1.68 2.208-.832-.608-1.408-1.264-1.728-1.968a10.12 10.12 0 0 1-.72-2.352c.032-.768.144-1.728.336-2.88a32.25 32.25 0 0 1 .912-3.552 47.428 47.428 0 0 1 2.832-6.96 176.952 176.952 0 0 1 3.408-6.336 7.96 7.96 0 0 1 2.4.912c.736.416 1.504 1.024 2.304 1.824-.32.992-.816 2.048-1.488 3.168a450.278 450.278 0 0 0-2.112 3.456 42.163 42.163 0 0 0-2.016 3.744 13.634 13.634 0 0 0-1.2 3.888c.896-1.28 1.952-2.752 3.168-4.416a83.692 83.692 0 0 1 3.792-4.704c1.312-1.472 2.608-2.72 3.888-3.744 1.28-1.024 2.432-1.536 3.456-1.536.384 0 .8.064 1.248.192.448.128.864.288 1.248.48s.704.384.96.576c.256.16.4.288.432.384-.16.64-.544 1.52-1.152 2.64-.576 1.088-1.2 2.24-1.872 3.456a97.523 97.523 0 0 0-1.872 3.552c-.576 1.12-.912 2.016-1.008 2.688 1.568-2.144 3.04-4.08 4.416-5.808 1.376-1.76 2.672-3.264 3.888-4.512 1.216-1.248 2.336-2.208 3.36-2.88 1.056-.672 2.048-1.008 2.976-1.008.64 0 1.232.176 1.776.528.576.32.976.8 1.2 1.44-.288.96-.768 2.112-1.44 3.456a194.551 194.551 0 0 0-1.968 4.272 70.613 70.613 0 0 0-1.824 4.368c-.512 1.44-.768 2.736-.768 3.888 0 .672.096 1.12.288 1.344.192.192.464.288.816.288.384 0 .736-.064 1.056-.192.352-.16.608-.24.768-.24.192.128.304.288.336.48.032.192.048.368.048.528-.64.512-1.296.928-1.968 1.248-.672.352-1.424.528-2.256.528-.768 0-1.408-.128-1.92-.384a3.456 3.456 0 0 1-1.2-1.056 4.165 4.165 0 0 1-.672-1.536 8.625 8.625 0 0 1-.192-1.872c0-1.088.144-2.16.432-3.216a26.586 26.586 0 0 1 1.008-3.072c.416-.992.848-1.904 1.296-2.736a76.94 76.94 0 0 0 1.152-2.304Zm11.364 28.608c-.8-.32-1.28-.928-1.44-1.824-.128-.864-.672-1.568-1.632-2.112.256-1.632.544-3.28.864-4.944.32-1.664.72-3.552 1.2-5.664a366.649 366.649 0 0 1 1.872-7.44 735.837 735.837 0 0 1 2.88-10.32c-1.056 0-1.888.016-2.496.048-.608.032-1.2.096-1.776.192a1.668 1.668 0 0 1-.336-.528 2.281 2.281 0 0 1-.096-.624c.32-.128.976-.288 1.968-.48.992-.224 2.08-.416 3.264-.576.768-2.432 1.648-4.608 2.64-6.528.992-1.952 2.064-3.616 3.216-4.992 1.152-1.376 2.368-2.432 3.648-3.168 1.28-.736 2.576-1.104 3.888-1.104.384 0 .752.032 1.104.096.352.032.624.048.816.048.288-.224.672-.416 1.152-.576.48-.192.896-.288 1.248-.288.384 0 .88.208 1.488.624-.256.448-.528 1.056-.816 1.824a22.88 22.88 0 0 0-.72 2.256c-.8 2.368-1.648 3.904-2.544 4.608-.352 0-.544-.464-.576-1.392a10.069 10.069 0 0 0-.288-1.968 5.96 5.96 0 0 1-.288-.768 6.323 6.323 0 0 1-.048-.864c0-.192.016-.416.048-.672.032-.288.096-.752.192-1.392-.544 0-1.152.336-1.824 1.008-.64.672-1.328 1.632-2.064 2.88-.704 1.216-1.424 2.672-2.16 4.368a65.224 65.224 0 0 0-2.112 5.616l4.032-.144c.16.16.288.528.384 1.104a9.78 9.78 0 0 1 .24 1.728l-5.28-.288a762.002 762.002 0 0 0-3.408 10.368c-1.056 3.296-2 6.336-2.832 9.12a437.019 437.019 0 0 0-2.16 7.44c-.576 2.208-.992 3.984-1.248 5.328Zm31.814-21.312a111.672 111.672 0 0 1-2.208 6.384 51.094 51.094 0 0 1-2.352 5.28 35.076 35.076 0 0 1-2.688 4.464 33.596 33.596 0 0 1-3.168 3.888c-1.472 1.536-2.992 2.704-4.56 3.504-1.568.832-3.136 1.248-4.704 1.248-.8 0-1.6-.096-2.4-.288a9.52 9.52 0 0 1-2.16-.72 7.184 7.184 0 0 1-1.824-1.056c-.544-.384-.928-.8-1.152-1.248 0-.384.224-.72.672-1.008.384.352.704.624.96.816.256.192.512.352.768.48.224.128.48.208.768.24.256.032.56.048.912.048 1.824 0 3.6-.544 5.328-1.632 1.76-1.056 3.408-2.576 4.944-4.56 1.568-1.952 2.992-4.336 4.272-7.152 1.28-2.784 2.368-5.904 3.264-9.36-.416.64-.928 1.424-1.536 2.352a37.997 37.997 0 0 1-2.016 2.784 24.13 24.13 0 0 1-2.304 2.448c-.768.736-1.52 1.232-2.256 1.488a6.45 6.45 0 0 1-1.632-.336 6.379 6.379 0 0 1-1.584-.72 6.315 6.315 0 0 1-1.296-1.152 3.488 3.488 0 0 1-.768-1.536c0-.928.032-1.664.096-2.208.064-.576.176-1.2.336-1.872.288-1.216.704-2.592 1.248-4.128a46.925 46.925 0 0 1 1.968-4.512 35.126 35.126 0 0 1 2.496-4.176c.928-1.312 1.888-2.336 2.88-3.072.256 0 .576.032.96.096.384.032.784.112 1.2.24.416.128.816.288 1.2.48.384.16.72.384 1.008.672-.352.32-1.12 1.392-2.304 3.216-1.184 1.824-2.496 4.448-3.936 7.872-.16.352-.352.864-.576 1.536a84.347 84.347 0 0 0-.672 2.112 70.167 70.167 0 0 0-.528 2.16c-.16.704-.24 1.264-.24 1.68 0 .256.032.448.096.576.096.128.176.224.24.288.576-.096 1.344-.56 2.304-1.392.96-.864 2.048-2.192 3.264-3.984a58.277 58.277 0 0 0 2.112-3.408c.64-1.152 1.264-2.304 1.872-3.456.64-1.152 1.296-2.336 1.968-3.552a121.673 121.673 0 0 1 2.16-3.744c.416 0 .864.048 1.344.144.48.096.944.224 1.392.384.448.128.832.288 1.152.48.352.16.608.336.768.528a198.528 198.528 0 0 0-2.784 6.192 68.212 68.212 0 0 0-2.304 6.192Z"/><path fill="#AB7B60" d="M178.871 19.648c.096.544.16.928.192 1.152.064.192.096.464.096.816 0 1.056-.24 2.048-.72 2.976-.448.896-1.072 1.536-1.872 1.92a9.111 9.111 0 0 0-2.352-2.208 12.547 12.547 0 0 0-3.072-1.536 17.244 17.244 0 0 0-3.408-.912 21.58 21.58 0 0 0-3.456-.288c-1.12 0-2.176.096-3.168.288-.96.16-1.824.4-2.592.72-.736.288-1.328.656-1.776 1.104-.416.448-.624.96-.624 1.536.096.704.528 1.424 1.296 2.16.768.704 1.712 1.408 2.832 2.112a55.034 55.034 0 0 0 3.696 2.016c1.376.672 2.72 1.312 4.032 1.92a63.027 63.027 0 0 1 4.224 2.16c1.184.64 2.16 1.36 2.928 2.16a7.558 7.558 0 0 1 1.728 2.64c.384.992.576 2.192.576 3.6 0 1.632-.272 3.168-.816 4.608a10.539 10.539 0 0 1-2.4 3.696c-1.024 1.056-2.272 1.872-3.744 2.448-1.472.608-3.12.912-4.944.912-1.792 0-3.728-.272-5.808-.816a27.423 27.423 0 0 1-5.856-2.256c-1.792-.928-3.296-2-4.512-3.216-1.184-1.248-1.776-2.56-1.776-3.936 0-.64.176-1.456.528-2.448.384-.992 1.056-2.032 2.016-3.12.096.96.608 2.096 1.536 3.408.96 1.312 2.384 2.528 4.272 3.648 1.76 1.024 3.568 1.776 5.424 2.256 1.888.448 3.648.672 5.28.672 1.792 0 3.248-.224 4.368-.672 1.12-.448 2-.976 2.64-1.584.64-.64 1.088-1.28 1.344-1.92.256-.64.4-1.152.432-1.536-.032-.64-.336-1.248-.912-1.824-.544-.608-1.296-1.184-2.256-1.728a30.294 30.294 0 0 0-3.264-1.728 154.735 154.735 0 0 0-3.888-1.728 93.912 93.912 0 0 1-5.232-2.496c-1.44-.8-2.64-1.6-3.6-2.4-.928-.832-1.616-1.696-2.064-2.592-.416-.896-.624-1.92-.624-3.072 0-1.792.544-3.488 1.632-5.088 1.088-1.6 2.656-2.816 4.704-3.648a13.747 13.747 0 0 1 3.264-.96 21.58 21.58 0 0 1 3.456-.288c2.112 0 4.176.288 6.192.864a46.017 46.017 0 0 1 6.048 2.208Zm1.745 29.28c0-1.408.336-3.376 1.008-5.904.672-2.56 1.616-5.536 2.832-8.928 1.984-5.408 3.84-9.904 5.568-13.488 1.76-3.616 3.472-6.432 5.136-8.448.384.064.848.224 1.392.48a16.64 16.64 0 0 1 1.68.864 10.14 10.14 0 0 1 1.44.912c.448.32.736.576.864.768a59.121 59.121 0 0 0-6.576 9.504c-1.888 3.392-3.616 7.28-5.184 11.664-1.344 3.776-2.368 7.184-3.072 10.224-.704 3.008-1.056 5.52-1.056 7.536v1.008c0 .128.016.256.048.384a3.76 3.76 0 0 1-1.152-.336c-.32-.16-.528-.352-.624-.576-.064-.16-.24-.4-.528-.72a6.356 6.356 0 0 0-.768-.672c-.288-.192-.528-.688-.72-1.488-.192-.832-.288-1.76-.288-2.784Zm16.868 4.752c-1.824-.192-3.28-.992-4.368-2.4-1.088-1.408-1.632-3.2-1.632-5.376 0-1.28.192-2.608.576-3.984a18.643 18.643 0 0 1 1.632-3.984 22.033 22.033 0 0 1 2.496-3.696c.96-1.152 2-2.144 3.12-2.976 1.76-1.312 3.408-1.968 4.944-1.968 1.024.544 2.032 1.68 3.024 3.408h.432c.128-.032.272-.048.432-.048 1.696 0 2.544 1.504 2.544 4.512 0 2.016-.336 3.936-1.008 5.76a16.736 16.736 0 0 1-2.736 4.896 16.155 16.155 0 0 1-4.176 3.744c-1.6.992-3.36 1.696-5.28 2.112Zm2.448-15.12a22.036 22.036 0 0 0-1.536 2.4 21.99 21.99 0 0 0-1.248 2.64 16.706 16.706 0 0 0-.816 2.544c-.192.8-.288 1.52-.288 2.16 0 .768.128 1.504.384 2.208.256.704.544 1.104.864 1.2 1.44-.32 2.752-.912 3.936-1.776 1.216-.896 2.256-2 3.12-3.312.896-1.312 1.584-2.8 2.064-4.464.512-1.664.768-3.44.768-5.328 0-.832-.048-1.488-.144-1.968a3.628 3.628 0 0 0-.48-1.248 10.578 10.578 0 0 0-3.792 2.016 20.244 20.244 0 0 0-2.832 2.928Zm15.439-4.944c-.16-.192-.304-.592-.432-1.2-.128-.64-.192-1.184-.192-1.632.832.064 1.632.128 2.4.192.768.032 1.472.064 2.112.096.48-.96.992-1.904 1.536-2.832a64.82 64.82 0 0 1 1.632-2.592c.544-.8 1.04-1.472 1.488-2.016.48-.544.848-.896 1.104-1.056.32 0 .72.064 1.2.192.512.096 1.024.24 1.536.432.512.16.976.336 1.392.528.416.192.704.384.864.576a53.002 53.002 0 0 0-2.496 3.408 96.459 96.459 0 0 0-2.208 3.552 42.666 42.666 0 0 0 3.936-.192c.16.16.288.368.384.624.096.224.144.464.144.72-1.568.576-3.472.896-5.712.96a59.612 59.612 0 0 0-2.16 4.608 61.135 61.135 0 0 0-1.584 4.368 48.546 48.546 0 0 0-1.008 3.984c-.224 1.248-.336 2.368-.336 3.36 0 1.408.528 2.192 1.584 2.352.96-.128 1.872-.368 2.736-.72a9.077 9.077 0 0 0 2.304-1.344c.192.288.304.528.336.72-.192.288-.528.624-1.008 1.008-.448.384-.944.752-1.488 1.104-.544.384-1.072.704-1.584.96s-.896.4-1.152.432c-.8-.032-1.6-.208-2.4-.528-.8-.32-1.536-.72-2.208-1.2a7.428 7.428 0 0 1-1.584-1.584c-.416-.608-.624-1.2-.624-1.776 0-.768.096-1.728.288-2.88.224-1.184.528-2.464.912-3.84a80.994 80.994 0 0 1 1.344-4.32 75.012 75.012 0 0 1 1.68-4.464h-2.736Zm13.995 17.568c0-1.12.112-2.432.336-3.936.224-1.536.544-3.168.96-4.896.448-1.728.96-3.536 1.536-5.424a99.932 99.932 0 0 1 2.016-5.664 63.638 63.638 0 0 1 2.208-5.136 78.432 78.432 0 0 1 5.856-9.84 58.121 58.121 0 0 1 3.264-4.128c.512 0 1.056.064 1.632.192a9.866 9.866 0 0 1 1.728.528 6.81 6.81 0 0 1 1.536.72c.48.288.864.576 1.152.864a80.783 80.783 0 0 0-6.48 7.488c-1.92 2.496-3.44 4.848-4.56 7.056a312.847 312.847 0 0 0-1.68 3.408 67.01 67.01 0 0 0-1.344 3.168 51.856 51.856 0 0 0-1.152 3.12 58.635 58.635 0 0 0-.912 3.264c6.144-7.84 10.704-11.76 13.68-11.76.832 0 1.728.272 2.688.816.96.544 1.808 1.28 2.544 2.208-.992 1.088-2.016 2.4-3.072 3.936a66.157 66.157 0 0 0-2.928 4.656 45.214 45.214 0 0 0-2.16 4.32c-.544 1.312-.816 2.288-.816 2.928 0 .32.048.544.144.672.096.096.304.144.624.144.48 0 .864-.064 1.152-.192.288-.128.464-.192.528-.192.16.256.256.432.288.528a.79.79 0 0 1 .048.24c0 .128-.192.32-.576.576-.384.224-.848.464-1.392.72a30.91 30.91 0 0 1-1.536.624c-.512.192-.896.288-1.152.288-.32 0-.64-.096-.96-.288a2.871 2.871 0 0 1-.864-.672 4.773 4.773 0 0 1-.576-.96 3.205 3.205 0 0 1-.192-1.104c0-.48.128-1.184.384-2.112.288-.96.672-2.064 1.152-3.312a74.05 74.05 0 0 1 1.728-4.176c.672-1.504 1.392-3.04 2.16-4.608 0-.128-.064-.192-.192-.192-.096 0-.352.128-.768.384-.384.256-.752.512-1.104.768-1.152.864-2.32 1.936-3.504 3.216a50.903 50.903 0 0 0-3.408 4.128 59.035 59.035 0 0 0-3.12 4.8 43.322 43.322 0 0 0-2.496 5.04c-.096.224-.24.432-.432.624s-.352.288-.48.288c-.096 0-.24-.112-.432-.336a5.212 5.212 0 0 1-.48-.864c-.128-.32-.256-.656-.384-1.008s-.192-.656-.192-.912Z"/></g><defs><filter id="a" width="239.113" height="65.168" x="19.261" y="12.16" color-interpolation-filters="sRGB" filterUnits="userSpaceOnUse"><feFlood flood-opacity="0" result="BackgroundImageFix"/><feColorMatrix in="SourceAlpha" values="0 0 0 0 0 0 0 0 0 0 0 0 0 0 0 0 0 0 127 0"/><feOffset dy="4"/><feGaussianBlur stdDeviation="2"/><feColorMatrix values="0 0 0 0 0 0 0 0 0 0 0 0 0 0 0 0 0 0 0.25 0"/><feBlend in2="BackgroundImageFix" result="effect1_dropShadow"/><feBlend in="SourceGraphic" in2="effect1_dropShadow" result="shape"/></filter></defs></svg>