<svg xmlns="http://www.w3.org/2000/svg" xml:space="preserve" viewBox="0 0 512 512"><path d="M309.333 213.333h149.333c5.888 0 10.667-4.779 10.667-10.667S464.555 192 458.667 192H309.333c-5.888 0-10.667 4.779-10.667 10.667s4.779 10.666 10.667 10.666z"/><path d="M458.667 21.333H53.333C23.915 21.333 0 45.269 0 74.667v362.667c0 29.397 23.915 53.333 53.333 53.333h405.333c29.419 0 53.333-23.936 53.333-53.333V74.667c.001-29.398-23.914-53.334-53.332-53.334zM138.667 64c5.888 0 10.667 4.779 10.667 10.667s-4.779 10.667-10.667 10.667S128 80.555 128 74.667 132.779 64 138.667 64zM96 64c5.888 0 10.667 4.779 10.667 10.667S101.888 85.333 96 85.333s-10.667-4.779-10.667-10.667S90.112 64 96 64zm-42.667 0C59.221 64 64 68.779 64 74.667s-4.779 10.667-10.667 10.667-10.667-4.779-10.667-10.667S47.445 64 53.333 64zm437.334 373.333c0 17.643-14.357 32-32 32H53.333c-17.643 0-32-14.357-32-32V128h469.333v309.333z"/><path d="M53.333 405.333h213.333c5.888 0 10.667-4.8 10.667-10.688 0-26.731-18.133-49.941-44.053-56.427l-32.021-8-1.344-5.355c8.32-9.173 14.208-20.885 16.661-33.045a19.98 19.98 0 0 0 10.667-15.253l2.304-18.56a19.908 19.908 0 0 0-4.757-15.573 20.462 20.462 0 0 0-3.883-3.435l.533-11.328 1.941-1.941c5.504-5.845 12.928-18.325 1.173-36.331-5.547-8.533-17.067-18.731-40.149-18.731-6.784 0-22.123 0-37.013 9.344-43.904 1.536-49.067 25.195-49.067 43.072 0 3.52.619 10.112 1.237 15.616a19.545 19.545 0 0 0-4.288 3.669 19.849 19.849 0 0 0-4.821 15.659l2.304 18.56c.875 6.955 5.291 12.715 11.797 15.552 2.389 11.627 7.979 22.891 15.765 31.829l-1.557 6.272-32.021 8c-25.941 6.464-44.075 29.675-44.075 56.427.001 5.889 4.779 10.667 10.667 10.667zM309.333 405.333h85.333c5.888 0 10.667-4.779 10.667-10.667S400.555 384 394.667 384h-85.333c-5.888 0-10.667 4.779-10.667 10.667s4.778 10.666 10.666 10.666zM309.333 277.333h149.333c5.888 0 10.667-4.779 10.667-10.667S464.555 256 458.667 256H309.333c-5.888 0-10.667 4.779-10.667 10.667s4.779 10.666 10.667 10.666zM309.333 341.333h149.333c5.888 0 10.667-4.779 10.667-10.667S464.555 320 458.667 320H309.333c-5.888 0-10.667 4.779-10.667 10.667s4.779 10.666 10.667 10.666z"/></svg>